<svg width="30" height="30" viewBox="0 0 30 30" fill="none" xmlns="http://www.w3.org/2000/svg">
<g clip-path="url(#clip0)">
<path d="M13.5961 7.19523L13.4515 6.99115C12.8976 9.62133 11.5552 12.0196 9.60312 13.8671C6.42919 16.7336 1.47845 25.2841 0.0363896 27.8366C-0.0926934 28.0696 0.124222 28.5828 0.646004 28.9406C2.05432 29.9038 2.67032 29.9193 2.86854 29.8818C2.95104 29.8711 3.0244 29.824 3.06887 29.7543C3.35388 29.1999 3.46421 28.5726 3.38599 27.9544C3.28151 26.612 3.62487 25.2728 4.36363 24.1473C5.73444 22.4214 7.20058 20.7736 8.75515 19.2116C11.5567 16.2364 15.044 12.5338 16.0377 10.6413C16.3248 10.0992 16.5803 9.59935 16.8134 9.13658L16.8069 9.13552C15.5143 8.96085 14.3514 8.25854 13.5961 7.19523Z" fill="white"/>
<path d="M20.5931 2.27076C20.6901 2.12825 20.7265 1.95259 20.6938 1.78331C20.6617 1.61403 20.5631 1.46456 20.4201 1.36764L18.7852 0.258689C18.3898 -0.0107855 17.851 0.0904653 17.5804 0.485273L17.3104 0.883831L20.2031 2.84603L20.5931 2.27076Z" fill="white"/>
<path d="M26.1138 5.87747L21.6988 4.91166C21.3367 4.82646 20.9933 4.67652 20.6858 4.46757L20.0607 4.04388C20.0553 4.04066 20.0489 4.0396 20.0435 4.03585C20.0392 4.03316 20.0376 4.02835 20.0333 4.02566L16.2771 1.47798C16.2734 1.47529 16.2686 1.47529 16.2643 1.47265C16.2605 1.46995 16.2584 1.46515 16.2546 1.46245L14.872 0.524418C14.737 0.433363 14.5539 0.468168 14.4622 0.603169L12.2177 3.91316C12.1738 3.97796 12.1577 4.05777 12.1722 4.13493C12.1866 4.2121 12.2316 4.28013 12.2965 4.32402L13.0169 4.81258C13.2152 4.9508 13.393 5.11633 13.5456 5.30377C13.5649 5.32358 13.5831 5.34449 13.5992 5.367C13.6254 5.40127 13.6576 5.43022 13.6827 5.46555L14.4702 6.57656C15.053 7.39723 15.9503 7.93934 16.9482 8.07434L17.9152 8.20342C20.0895 8.67856 20.3177 10.3006 20.5598 12.018C20.615 12.4118 20.6734 12.8285 20.7569 13.2624C20.8142 13.5377 20.9085 13.804 21.036 14.0541C24.9064 10.48 25.8765 7.28203 26.1138 5.87747Z" fill="white"/>
<path d="M29.771 6.67722L27.1622 6.10675C26.8676 7.83809 25.7458 11.2172 21.6345 14.9594C22.0754 15.4635 22.588 15.8995 23.1564 16.2541C23.2978 16.3463 23.4746 16.3656 23.6332 16.3066C24.449 15.9922 26.0796 15.0799 27.8307 12.498C28.9658 10.8513 29.7078 8.9662 29.9992 6.98795C30.0104 6.84222 29.9134 6.70992 29.771 6.67722Z" fill="white"/>
</g>
<defs>
<clipPath id="clip0">
<rect width="30" height="30" fill="white"/>
</clipPath>
</defs>
</svg>
